<svg width="128" height="128" viewBox="0 0 128 128" fill="none" xmlns="http://www.w3.org/2000/svg">
<g clip-path="url(#clip0_17_2)">
<path d="M0 38C0 17.0132 17.0132 0 38 0H90C110.987 0 128 17.0132 128 38V90C128 110.987 110.987 128 90 128H38C17.0132 128 0 110.987 0 90V38Z" fill="white"/>
<path fill-rule="evenodd" clip-rule="evenodd" d="M40.3479 29.3501C39.6683 31.4953 39.3011 33.7797 39.301 36.1499V37.5229C35.2232 38.2401 31.4794 40.689 29.2473 44.5552C25.2436 51.4903 27.6199 60.3578 34.5549 64.3618L61.4944 79.9155L53.4944 84.5337L30.5549 71.2905C19.7934 65.0773 16.1065 51.3167 22.3196 40.5552C26.2224 33.7953 33.103 29.8271 40.3479 29.3501Z" fill="#1E2125"/>
<g clip-path="url(#clip1_17_2)">
<path fill-rule="evenodd" clip-rule="evenodd" d="M22.0562 67.5696C23.5745 69.231 25.3694 70.6913 27.4224 71.8766L28.6098 72.5621C27.1919 76.4521 27.4412 80.9189 29.673 84.785C33.6771 91.7202 42.5455 94.0963 49.4807 90.0923L76.4204 74.5389L76.4203 83.7753L53.4803 97.0203C42.7188 103.233 28.9578 99.5469 22.7446 88.7855C18.8419 82.0256 18.8463 74.0823 22.0562 67.5696Z" fill="#1E2125"/>
</g>
<g clip-path="url(#clip2_17_2)">
<path fill-rule="evenodd" clip-rule="evenodd" d="M46.0093 102.521C48.2072 102.037 50.3694 101.213 52.4224 100.027L53.6107 99.3413C56.2706 102.514 60.2633 104.532 64.7276 104.532C72.7355 104.532 79.2277 98.0395 79.2277 90.0316L79.2275 58.9258L87.2265 63.5441L87.2273 90.0318C87.2273 102.458 77.1537 112.531 64.7274 112.532C56.9217 112.532 50.0446 108.557 46.0093 102.521Z" fill="#1E2125"/>
</g>
<path fill-rule="evenodd" clip-rule="evenodd" d="M88.2542 99.2524C88.9339 97.1069 89.3011 94.8222 89.3011 92.4517V91.0796C93.3789 90.3627 97.1226 87.9143 99.3548 84.0483C103.359 77.1131 100.982 68.2448 94.0472 64.2407L67.1077 48.687L75.1077 44.0679L98.0472 57.312C108.809 63.5252 112.497 77.2868 106.283 88.0483C102.381 94.8082 95.4994 98.7758 88.2542 99.2524Z" fill="#1E2125"/>
<g clip-path="url(#clip3_17_2)">
<path fill-rule="evenodd" clip-rule="evenodd" d="M106.547 61.0326C105.028 59.3713 103.233 57.9109 101.18 56.7256L99.9921 56.0396C101.41 52.1496 101.162 47.6833 98.9297 43.8172C94.9256 36.882 86.0572 34.5059 79.122 38.5099L52.1823 54.0633L52.1824 44.8269L75.1224 31.582C85.8839 25.3689 99.6445 29.0561 105.858 39.8176C109.76 46.5774 109.756 54.5202 106.547 61.0326Z" fill="#1E2125"/>
</g>
<g clip-path="url(#clip4_17_2)">
<path fill-rule="evenodd" clip-rule="evenodd" d="M82.5934 26.0819C80.3955 26.566 78.2333 27.3904 76.1803 28.5756L74.9921 29.2617C72.3321 26.0888 68.3393 24.071 63.8751 24.071C55.8673 24.0712 49.3761 30.563 49.3759 38.5709L49.3757 69.678L41.3754 65.0593L41.3755 38.5711C41.3756 26.1451 51.4489 16.0709 63.8749 16.0706C71.6805 16.0706 78.5578 20.0458 82.5934 26.0819Z" fill="#1E2125"/>
</g>
<path d="M65.5 50L54 66.375H61.875L60.125 78L73 61.625H64.5L65.5 50Z" fill="#1E2125"/>
</g>
<defs>
<clipPath id="clip0_17_2">
<path d="M0 38C0 17.0132 17.0132 0 38 0H90C110.987 0 128 17.0132 128 38V90C128 110.987 110.987 128 90 128H38C17.0132 128 0 110.987 0 90V38Z" fill="white"/>
</clipPath>
<clipPath id="clip1_17_2">
<rect width="100" height="100" fill="white" transform="translate(-4 82.6025) rotate(-60)"/>
</clipPath>
<clipPath id="clip2_17_2">
<rect width="100" height="100" fill="white" transform="translate(46 132.603) rotate(-120)"/>
</clipPath>
<clipPath id="clip3_17_2">
<rect width="100" height="100" fill="white" transform="translate(132.603 46) rotate(120)"/>
</clipPath>
<clipPath id="clip4_17_2">
<rect width="100" height="100" fill="white" transform="translate(82.6025 -4) rotate(60)"/>
</clipPath>
</defs>
</svg>
